if (_typeface_js && _typeface_js.loadFace) _typeface_js.loadFace({"glyphs":{"0":{"ha":605,"x_min":68,"x_max":537,"o":"m 465 867 l 498 834 l 465 802 l 137 802 l 104 834 l 137 867 l 465 867 m 537 796 l 537 465 l 506 434 l 475 465 l 475 796 l 506 827 l 537 796 m 130 389 l 130 58 l 99 27 l 68 58 l 68 389 l 99 420 l 130 389 m 130 796 l 130 465 l 99 434 l 68 465 l 68 796 l 99 827 l 130 796 m 537 389 l 537 58 l 506 27 l 475 58 l 475 389 l 506 420 l 537 389 m 467 53 l 500 20 l 467 -12 l 139 -12 l 106 20 l 139 53 l 467 53 m 298 407 l 314 359 l 206 91 l 165 68 l 149 119 l 257 384 l 298 407 m 440 780 l 456 732 l 349 464 l 307 441 l 291 492 l 399 757 l 440 780 z "},"1":{"ha":467,"x_min":68,"x_max":399,"o":"m 271 803 l 271 472 l 239 441 l 208 472 l 208 803 l 239 834 l 271 803 m 271 396 l 271 65 l 239 34 l 208 65 l 208 396 l 239 427 l 271 396 m 198 831 l 198 782 l 114 700 l 68 700 l 68 753 l 152 831 l 198 831 m 366 60 l 399 27 l 366 -5 l 275 -5 l 243 27 l 275 60 l 366 60 m 200 60 l 233 27 l 200 -5 l 109 -5 l 77 27 l 109 60 l 200 60 z "},"2":{"ha":606,"x_min":68,"x_max":538,"o":"m 465 873 l 498 841 l 465 808 l 137 808 l 104 841 l 137 873 l 465 873 m 538 803 l 538 472 l 507 441 l 475 472 l 475 803 l 507 834 l 538 803 m 131 396 l 131 65 l 100 34 l 68 65 l 68 396 l 100 427 l 131 396 m 467 60 l 500 27 l 467 -5 l 139 -5 l 106 27 l 139 60 l 467 60 m 467 469 l 499 437 l 467 404 l 138 404 l 106 437 l 138 469 l 467 469 m 130 805 l 130 745 l 99 714 l 68 745 l 68 805 l 99 836 l 130 805 z "},"3":{"ha":574,"x_min":68,"x_max":506,"o":"m 433 873 l 466 841 l 433 808 l 105 808 l 73 841 l 105 873 l 433 873 m 506 803 l 506 472 l 475 441 l 444 472 l 444 803 l 475 834 l 506 803 m 506 396 l 506 65 l 475 34 l 444 65 l 444 396 l 475 427 l 506 396 m 435 60 l 468 27 l 435 -5 l 107 -5 l 75 27 l 107 60 l 435 60 m 429 464 l 461 431 l 429 399 l 100 399 l 68 431 l 100 464 l 429 464 z "},"4":{"ha":605,"x_min":68,"x_max":537,"o":"m 537 803 l 537 472 l 506 441 l 475 472 l 475 803 l 506 834 l 537 803 m 130 803 l 130 472 l 99 441 l 68 472 l 68 803 l 99 834 l 130 803 m 537 396 l 537 65 l 506 34 l 475 65 l 475 396 l 506 427 l 537 396 m 467 467 l 500 434 l 467 401 l 139 401 l 106 434 l 139 467 l 467 467 z "},"5":{"ha":605,"x_min":68,"x_max":537,"o":"m 465 873 l 498 841 l 465 808 l 137 808 l 104 841 l 137 873 l 465 873 m 130 803 l 130 472 l 99 441 l 68 472 l 68 803 l 99 834 l 130 803 m 537 396 l 537 65 l 506 34 l 475 65 l 475 396 l 506 427 l 537 396 m 467 60 l 500 27 l 467 -5 l 139 -5 l 106 27 l 139 60 l 467 60 m 467 469 l 500 437 l 467 404 l 139 404 l 106 437 l 139 469 l 467 469 m 131 125 l 131 65 l 100 34 l 68 65 l 68 125 l 100 156 l 131 125 z "},"6":{"ha":605,"x_min":68,"x_max":537,"o":"m 465 873 l 498 841 l 465 808 l 137 808 l 104 841 l 137 873 l 465 873 m 130 396 l 130 65 l 99 34 l 68 65 l 68 396 l 99 427 l 130 396 m 130 803 l 130 472 l 99 441 l 68 472 l 68 803 l 99 834 l 130 803 m 537 396 l 537 65 l 506 34 l 475 65 l 475 396 l 506 427 l 537 396 m 467 60 l 500 27 l 467 -5 l 139 -5 l 106 27 l 139 60 l 467 60 m 467 467 l 500 434 l 467 401 l 139 401 l 106 434 l 139 467 l 467 467 z "},"7":{"ha":569,"x_min":68,"x_max":501,"o":"m 429 873 l 461 841 l 429 808 l 100 808 l 68 841 l 100 873 l 429 873 m 501 803 l 501 472 l 470 441 l 439 472 l 439 803 l 470 834 l 501 803 m 501 396 l 501 65 l 470 34 l 439 65 l 439 396 l 470 427 l 501 396 z "},"8":{"ha":605,"x_min":68,"x_max":537,"o":"m 465 873 l 498 841 l 465 808 l 137 808 l 104 841 l 137 873 l 465 873 m 537 803 l 537 472 l 506 441 l 475 472 l 475 803 l 506 834 l 537 803 m 130 396 l 130 65 l 99 34 l 68 65 l 68 396 l 99 427 l 130 396 m 130 803 l 130 472 l 99 441 l 68 472 l 68 803 l 99 834 l 130 803 m 537 396 l 537 65 l 506 34 l 475 65 l 475 396 l 506 427 l 537 396 m 467 60 l 500 27 l 467 -5 l 139 -5 l 106 27 l 139 60 l 467 60 m 467 463 l 500 430 l 467 397 l 139 397 l 106 430 l 139 463 l 467 463 z "},"9":{"ha":605,"x_min":68,"x_max":537,"o":"m 465 873 l 498 841 l 465 808 l 137 808 l 104 841 l 137 873 l 465 873 m 537 803 l 537 472 l 506 441 l 475 472 l 475 803 l 506 834 l 537 803 m 130 803 l 130 472 l 99 441 l 68 472 l 68 803 l 99 834 l 130 803 m 537 396 l 537 65 l 506 34 l 475 65 l 475 396 l 506 427 l 537 396 m 467 60 l 500 27 l 467 -5 l 139 -5 l 106 27 l 139 60 l 467 60 m 467 469 l 500 436 l 467 404 l 139 404 l 106 436 l 139 469 l 467 469 z "}," ":{"ha":407,"x_min":0,"x_max":0,"o":""},"!":{"ha":198,"x_min":68,"x_max":130,"o":"m 130 464 l 130 133 l 99 102 l 68 133 l 68 464 l 99 495 l 130 464 m 130 871 l 130 540 l 99 509 l 68 540 l 68 871 l 99 902 l 130 871 m 130 60 l 130 -5 l 68 -5 l 68 60 l 130 60 z "},"\"":{"ha":334,"x_min":68,"x_max":266,"o":"m 130 1217 l 130 1021 l 99 990 l 68 1021 l 68 1217 l 99 1248 l 130 1217 m 266 1217 l 266 1021 l 235 990 l 203 1021 l 203 1217 l 235 1248 l 266 1217 z "},"#":{"ha":936,"x_min":68,"x_max":868,"o":"m 363 532 l 363 336 l 332 305 l 301 336 l 301 532 l 332 563 l 363 532 m 564 602 l 597 570 l 564 537 l 372 537 l 339 570 l 372 602 l 564 602 m 363 260 l 363 65 l 332 34 l 301 65 l 301 260 l 332 292 l 363 260 m 363 803 l 363 608 l 332 576 l 301 608 l 301 803 l 332 834 l 363 803 m 635 532 l 635 336 l 604 305 l 572 336 l 572 532 l 604 563 l 635 532 m 635 260 l 635 65 l 604 34 l 572 65 l 572 260 l 604 292 l 635 260 m 635 803 l 635 608 l 604 576 l 572 608 l 572 803 l 604 834 l 635 803 m 564 331 l 597 298 l 564 266 l 372 266 l 339 298 l 372 331 l 564 331 m 836 602 l 868 570 l 836 537 l 643 537 l 610 570 l 643 602 l 836 602 m 293 602 l 326 570 l 293 537 l 100 537 l 68 570 l 100 602 l 293 602 m 836 331 l 868 298 l 836 266 l 643 266 l 610 298 l 643 331 l 836 331 m 293 331 l 326 298 l 293 266 l 100 266 l 68 298 l 100 331 l 293 331 z "},"$":{"ha":609,"x_min":68,"x_max":541,"o":"m 471 873 l 503 841 l 471 808 l 142 808 l 110 841 l 142 873 l 471 873 m 471 60 l 503 27 l 471 -5 l 142 -5 l 110 27 l 142 60 l 471 60 m 470 467 l 503 434 l 470 401 l 142 401 l 109 434 l 142 467 l 470 467 m 134 803 l 134 472 l 102 441 l 71 472 l 71 803 l 102 834 l 134 803 m 541 396 l 541 65 l 509 34 l 478 65 l 478 396 l 509 427 l 541 396 m 338 735 l 338 540 l 307 509 l 275 540 l 275 735 l 307 766 l 338 735 m 338 328 l 338 133 l 307 102 l 275 133 l 275 328 l 307 359 l 338 328 m 336 972 l 336 913 l 305 882 l 274 913 l 274 972 l 305 1004 l 336 972 m 336 -45 l 336 -104 l 305 -136 l 274 -104 l 274 -45 l 305 -14 l 336 -45 m 130 118 l 130 72 l 99 41 l 68 72 l 68 118 l 99 149 l 130 118 m 541 803 l 541 757 l 510 726 l 479 757 l 479 803 l 510 834 l 541 803 z "},"%":{"ha":1080,"x_min":68,"x_max":1012,"o":"m 760 1003 l 768 962 l 653 687 l 611 679 l 604 724 l 718 995 l 760 1003 m 617 657 l 625 616 l 511 341 l 469 333 l 461 378 l 575 649 l 617 657 m 475 311 l 483 271 l 368 -5 l 326 -13 l 319 32 l 433 303 l 475 311 m 943 134 l 976 102 l 943 69 l 751 69 l 718 102 l 751 134 l 943 134 m 741 335 l 741 140 l 709 109 l 678 140 l 678 335 l 709 366 l 741 335 m 943 406 l 976 373 l 943 340 l 751 340 l 718 373 l 751 406 l 943 406 m 1012 335 l 1012 140 l 981 109 l 949 140 l 949 335 l 981 366 l 1012 335 m 333 609 l 366 576 l 333 544 l 140 544 l 108 576 l 140 609 l 333 609 m 130 810 l 130 614 l 99 583 l 68 614 l 68 810 l 99 841 l 130 810 m 333 880 l 366 848 l 333 815 l 140 815 l 108 848 l 140 880 l 333 880 m 401 810 l 401 614 l 370 583 l 339 614 l 339 810 l 370 841 l 401 810 z "},"&":{"ha":1268,"x_min":68,"x_max":1214,"o":"m 453 548 l 741 264 l 741 212 l 694 212 l 407 499 l 407 548 l 453 548 m 409 1016 l 409 967 l 257 817 l 211 817 l 211 871 l 363 1016 l 409 1016 m 259 812 l 259 754 l 203 754 l 203 812 l 259 812 m 471 1016 l 471 958 l 416 958 l 416 1016 l 471 1016 m 525 1016 l 677 868 l 677 815 l 631 815 l 479 967 l 479 1016 l 525 1016 m 1148 209 l 1148 160 l 996 10 l 950 10 l 950 64 l 1102 209 l 1148 209 m 667 812 l 667 754 l 611 754 l 611 812 l 667 812 m 667 750 l 667 701 l 515 551 l 469 551 l 469 605 l 621 750 l 667 750 m 250 751 l 401 604 l 401 551 l 355 551 l 203 703 l 203 751 l 250 751 m 463 609 l 463 551 l 407 551 l 407 609 l 463 609 m 792 209 l 944 61 l 944 8 l 898 8 l 746 160 l 746 209 l 792 209 m 401 548 l 401 499 l 114 214 l 68 214 l 68 267 l 355 548 l 401 548 m 741 209 l 741 160 l 453 -125 l 407 -125 l 407 -72 l 694 209 l 741 209 m 1080 548 l 1080 499 l 792 214 l 746 214 l 746 267 l 1034 548 l 1080 548 m 989 577 l 1021 545 l 989 512 l 796 512 l 764 545 l 796 577 l 989 577 m 1181 496 l 1214 463 l 1181 431 l 1090 431 l 1058 463 l 1090 496 l 1181 496 m 149 179 l 149 79 l 117 47 l 86 79 l 86 179 l 117 210 l 149 179 m 372 -42 l 404 -75 l 372 -107 l 281 -107 l 248 -75 l 281 -42 l 372 -42 m 190 41 l 156 7 l 122 41 l 156 75 l 190 41 m 271 -41 l 237 -75 l 203 -41 l 237 -7 l 271 -41 m 231 0 l 197 -34 l 163 0 l 197 34 l 231 0 z "},"'":{"ha":198,"x_min":68,"x_max":130,"o":"m 130 1061 l 130 730 l 99 699 l 68 730 l 68 1061 l 99 1092 l 130 1061 z "},"(":{"ha":321,"x_min":68,"x_max":252,"o":"m 230 1221 l 246 1173 l 138 905 l 97 882 l 81 933 l 189 1198 l 230 1221 m 142 72 l 252 -192 l 244 -245 l 198 -221 l 88 47 l 96 96 l 142 72 m 130 850 l 130 519 l 99 488 l 68 519 l 68 850 l 99 882 l 130 850 m 130 456 l 130 125 l 99 94 l 68 125 l 68 456 l 99 488 l 130 456 z "},")":{"ha":317,"x_min":68,"x_max":250,"o":"m 131 1184 l 237 920 l 221 867 l 180 891 l 75 1160 l 91 1207 l 131 1184 m 222 82 l 230 33 l 122 -235 l 76 -258 l 68 -205 l 176 58 l 222 82 m 219 868 l 250 837 l 250 506 l 219 475 l 189 506 l 189 837 l 219 868 m 219 474 l 250 443 l 250 112 l 219 81 l 188 112 l 188 443 l 219 474 z "},"*":{"ha":464,"x_min":68,"x_max":396,"o":"m 262 1020 l 262 920 l 231 888 l 199 920 l 199 1020 l 231 1051 l 262 1020 m 191 912 l 224 880 l 191 847 l 100 847 l 68 880 l 100 912 l 191 912 m 363 912 l 396 880 l 363 847 l 273 847 l 240 880 l 273 912 l 363 912 m 221 842 l 221 793 l 137 711 l 91 711 l 91 765 l 175 842 l 221 842 m 286 840 l 370 760 l 370 707 l 324 707 l 240 791 l 240 840 l 286 840 z "},"+":{"ha":680,"x_min":68,"x_max":612,"o":"m 579 521 l 612 488 l 579 456 l 387 456 l 354 488 l 387 521 l 579 521 m 372 433 l 372 237 l 340 206 l 309 237 l 309 433 l 340 464 l 372 433 m 372 735 l 372 540 l 340 509 l 309 540 l 309 735 l 340 766 l 372 735 m 293 521 l 326 488 l 293 456 l 100 456 l 68 488 l 100 521 l 293 521 z "},",":{"ha":198,"x_min":68,"x_max":130,"o":"m 130 84 l 130 -111 l 99 -142 l 68 -111 l 68 84 l 99 115 l 130 84 z "},"-":{"ha":393,"x_min":68,"x_max":326,"o":"m 293 365 l 326 332 l 293 300 l 100 300 l 68 332 l 100 365 l 293 365 z "},".":{"ha":198,"x_min":68,"x_max":130,"o":"m 130 100 l 130 35 l 68 35 l 68 100 l 130 100 z "},"/":{"ha":606,"x_min":88,"x_max":531,"o":"m 515 936 l 531 888 l 423 620 l 382 597 l 366 648 l 474 913 l 515 936 m 373 597 l 389 549 l 281 281 l 239 258 l 224 309 l 332 574 l 373 597 m 237 251 l 253 203 l 145 -65 l 104 -88 l 88 -37 l 196 228 l 237 251 z "},":":{"ha":198,"x_min":68,"x_max":130,"o":"m 130 684 l 130 618 l 68 618 l 68 684 l 130 684 m 130 195 l 130 130 l 68 130 l 68 195 l 130 195 z "},";":{"ha":205,"x_min":68,"x_max":137,"o":"m 130 169 l 130 -26 l 99 -58 l 68 -26 l 68 169 l 99 200 l 130 169 m 137 677 l 137 612 l 75 612 l 75 677 l 137 677 z "},"<":{"ha":469,"x_min":68,"x_max":401,"o":"m 114 467 l 401 183 l 401 130 l 355 130 l 68 418 l 68 467 l 114 467 m 401 819 l 401 770 l 114 485 l 68 485 l 68 538 l 355 819 l 401 819 z "},"=":{"ha":529,"x_min":68,"x_max":461,"o":"m 429 602 l 461 570 l 429 537 l 100 537 l 68 570 l 100 602 l 429 602 m 429 412 l 461 380 l 429 347 l 100 347 l 68 380 l 100 412 l 429 412 z "},">":{"ha":469,"x_min":68,"x_max":401,"o":"m 114 819 l 401 536 l 401 483 l 355 483 l 68 770 l 68 819 l 114 819 m 401 465 l 401 416 l 114 130 l 68 130 l 68 184 l 355 465 l 401 465 z "},"?":{"ha":569,"x_min":68,"x_max":501,"o":"m 429 914 l 461 882 l 429 849 l 100 849 l 68 882 l 100 914 l 429 914 m 501 844 l 501 513 l 470 481 l 439 513 l 439 844 l 470 875 l 501 844 m 425 498 l 457 466 l 425 433 l 334 433 l 301 466 l 334 498 l 425 498 m 312 100 l 312 35 l 250 35 l 250 100 l 312 100 m 312 430 l 312 235 l 281 203 l 250 235 l 250 430 l 281 461 l 312 430 z "},"@":{"ha":1016,"x_min":68,"x_max":944,"o":"m 467 780 l 499 747 l 467 715 l 138 715 l 106 747 l 138 780 l 467 780 m 873 -34 l 906 -66 l 873 -99 l 545 -99 l 513 -66 l 545 -34 l 873 -34 m 467 -34 l 499 -66 l 467 -99 l 138 -99 l 106 -66 l 138 -34 l 467 -34 m 130 709 l 130 378 l 99 347 l 68 378 l 68 709 l 99 741 l 130 709 m 130 302 l 130 -28 l 99 -60 l 68 -28 l 68 302 l 99 334 l 130 302 m 944 703 l 944 372 l 913 340 l 882 372 l 882 703 l 913 734 l 944 703 m 873 780 l 906 747 l 873 715 l 545 715 l 513 747 l 545 780 l 873 780 m 868 204 l 901 172 l 868 139 l 675 139 l 643 172 l 675 204 l 868 204 m 399 407 l 399 212 l 368 180 l 336 212 l 336 407 l 368 438 l 399 407 m 670 407 l 670 212 l 639 180 l 608 212 l 608 407 l 639 438 l 670 407 m 601 208 l 633 176 l 601 143 l 408 143 l 376 176 l 408 208 l 601 208 m 601 484 l 633 452 l 601 419 l 408 419 l 376 452 l 408 484 l 601 484 m 941 308 l 941 208 l 910 176 l 879 208 l 879 308 l 910 339 l 941 308 m 674 532 l 674 486 l 643 454 l 612 486 l 612 532 l 643 563 l 674 532 z "},"A":{"ha":605,"x_min":68,"x_max":537,"o":"m 465 873 l 498 841 l 465 808 l 137 808 l 104 841 l 137 873 l 465 873 m 537 803 l 537 472 l 506 441 l 475 472 l 475 803 l 506 834 l 537 803 m 130 396 l 130 65 l 99 34 l 68 65 l 68 396 l 99 427 l 130 396 m 130 803 l 130 472 l 99 441 l 68 472 l 68 803 l 99 834 l 130 803 m 537 396 l 537 65 l 506 34 l 475 65 l 475 396 l 506 427 l 537 396 m 467 463 l 500 431 l 467 398 l 139 398 l 106 431 l 139 463 l 467 463 z "},"B":{"ha":592,"x_min":68,"x_max":531,"o":"m 130 396 l 130 65 l 99 34 l 68 65 l 68 396 l 99 427 l 130 396 m 130 803 l 130 472 l 99 441 l 68 472 l 68 803 l 99 834 l 130 803 m 332 463 l 364 430 l 332 397 l 139 397 l 106 430 l 139 463 l 332 463 m 413 426 l 497 346 l 497 293 l 451 293 l 367 377 l 367 426 l 413 426 m 497 568 l 497 519 l 413 437 l 367 437 l 367 491 l 451 568 l 497 568 m 332 873 l 364 841 l 332 808 l 139 808 l 106 841 l 139 873 l 332 873 m 332 60 l 364 27 l 332 -5 l 139 -5 l 106 27 l 139 60 l 332 60 m 497 159 l 497 111 l 413 28 l 367 28 l 367 82 l 451 159 l 497 159 m 413 840 l 497 760 l 497 707 l 451 707 l 367 791 l 367 840 l 413 840 m 531 260 l 531 201 l 500 170 l 469 201 l 469 260 l 500 292 l 531 260 m 531 667 l 531 608 l 500 576 l 469 608 l 469 667 l 500 699 l 531 667 z "},"C":{"ha":606,"x_min":68,"x_max":538,"o":"m 465 873 l 498 841 l 465 808 l 137 808 l 104 841 l 137 873 l 465 873 m 130 396 l 130 65 l 99 34 l 68 65 l 68 396 l 99 427 l 130 396 m 130 803 l 130 472 l 99 441 l 68 472 l 68 803 l 99 834 l 130 803 m 467 60 l 500 27 l 467 -5 l 139 -5 l 106 27 l 139 60 l 467 60 m 538 796 l 538 696 l 507 665 l 475 696 l 475 796 l 507 827 l 538 796 m 538 172 l 538 72 l 507 41 l 475 72 l 475 172 l 507 203 l 538 172 z "},"D":{"ha":660,"x_min":68,"x_max":592,"o":"m 130 396 l 130 65 l 99 34 l 68 65 l 68 396 l 99 427 l 130 396 m 130 803 l 130 472 l 99 441 l 68 472 l 68 803 l 99 834 l 130 803 m 332 873 l 364 841 l 332 808 l 139 808 l 106 841 l 139 873 l 332 873 m 332 60 l 364 27 l 332 -5 l 139 -5 l 106 27 l 139 60 l 332 60 m 592 600 l 592 269 l 561 237 l 530 269 l 530 600 l 561 631 l 592 600 m 413 846 l 565 699 l 565 646 l 519 646 l 367 798 l 367 846 l 413 846 m 569 216 l 569 167 l 417 17 l 371 17 l 371 71 l 523 216 l 569 216 z "},"E":{"ha":574,"x_min":68,"x_max":506,"o":"m 467 887 l 499 854 l 467 822 l 138 822 l 106 854 l 138 887 l 467 887 m 467 60 l 499 27 l 467 -5 l 138 -5 l 106 27 l 138 60 l 467 60 m 473 466 l 506 433 l 473 401 l 145 401 l 113 433 l 145 466 l 473 466 m 130 403 l 130 72 l 99 41 l 68 72 l 68 403 l 99 434 l 130 403 m 130 810 l 130 479 l 99 448 l 68 479 l 68 810 l 99 841 l 130 810 z "},"F":{"ha":574,"x_min":68,"x_max":506,"o":"m 467 870 l 499 838 l 467 805 l 138 805 l 106 838 l 138 870 l 467 870 m 473 456 l 506 424 l 473 391 l 145 391 l 113 424 l 145 456 l 473 456 m 130 386 l 130 55 l 99 24 l 68 55 l 68 386 l 99 417 l 130 386 m 130 793 l 130 462 l 99 431 l 68 462 l 68 793 l 99 824 l 130 793 z "},"G":{"ha":730,"x_min":68,"x_max":663,"o":"m 465 873 l 498 841 l 465 808 l 137 808 l 104 841 l 137 873 l 465 873 m 130 396 l 130 65 l 99 34 l 68 65 l 68 396 l 99 427 l 130 396 m 130 803 l 130 472 l 99 441 l 68 472 l 68 803 l 99 834 l 130 803 m 537 396 l 537 65 l 506 34 l 475 65 l 475 396 l 506 427 l 537 396 m 467 60 l 500 27 l 467 -5 l 139 -5 l 106 27 l 139 60 l 467 60 m 467 467 l 500 435 l 467 402 l 376 402 l 344 435 l 376 467 l 467 467 m 630 470 l 663 437 l 630 405 l 539 405 l 507 437 l 539 470 l 630 470 m 531 803 l 531 703 l 500 671 l 469 703 l 469 803 l 500 834 l 531 803 z "},"H":{"ha":605,"x_min":68,"x_max":537,"o":"m 537 803 l 537 472 l 506 441 l 475 472 l 475 803 l 506 834 l 537 803 m 130 396 l 130 65 l 99 34 l 68 65 l 68 396 l 99 427 l 130 396 m 130 803 l 130 472 l 99 441 l 68 472 l 68 803 l 99 834 l 130 803 m 537 396 l 537 65 l 506 34 l 475 65 l 475 396 l 506 427 l 537 396 m 467 470 l 500 437 l 467 405 l 139 405 l 106 437 l 139 470 l 467 470 z "},"I":{"ha":490,"x_min":68,"x_max":422,"o":"m 277 410 l 277 79 l 245 47 l 214 79 l 214 410 l 245 441 l 277 410 m 275 817 l 275 486 l 243 454 l 212 486 l 212 817 l 243 848 l 275 817 m 192 60 l 224 27 l 192 -5 l 101 -5 l 68 27 l 101 60 l 192 60 m 390 60 l 422 27 l 390 -5 l 299 -5 l 267 27 l 299 60 l 390 60 m 191 889 l 224 857 l 191 824 l 100 824 l 68 857 l 100 889 l 191 889 m 390 887 l 422 854 l 390 822 l 299 822 l 267 854 l 299 887 l 390 887 z "},"J":{"ha":730,"x_min":68,"x_max":662,"o":"m 414 810 l 414 479 l 383 448 l 352 479 l 352 810 l 383 841 l 414 810 m 414 403 l 414 72 l 383 41 l 352 72 l 352 403 l 383 434 l 414 403 m 629 894 l 662 861 l 629 829 l 437 829 l 404 861 l 437 894 l 629 894 m 331 887 l 363 854 l 331 822 l 138 822 l 106 854 l 138 887 l 331 887 m 130 260 l 130 65 l 99 34 l 68 65 l 68 260 l 99 292 l 130 260 m 331 60 l 363 27 l 331 -5 l 138 -5 l 106 27 l 138 60 l 331 60 z "},"K":{"ha":578,"x_min":68,"x_max":511,"o":"m 130 396 l 130 65 l 99 34 l 68 65 l 68 396 l 99 427 l 130 396 m 130 803 l 130 472 l 99 441 l 68 472 l 68 803 l 99 834 l 130 803 m 511 792 l 511 743 l 223 458 l 177 458 l 177 511 l 465 792 l 511 792 m 223 412 l 511 129 l 511 76 l 465 76 l 177 363 l 177 412 l 223 412 z "},"L":{"ha":567,"x_min":68,"x_max":499,"o":"m 467 60 l 499 27 l 467 -5 l 138 -5 l 106 27 l 138 60 l 467 60 m 130 403 l 130 72 l 99 41 l 68 72 l 68 403 l 99 434 l 130 403 m 130 810 l 130 479 l 99 448 l 68 479 l 68 810 l 99 841 l 130 810 z "},"M":{"ha":605,"x_min":68,"x_max":537,"o":"m 537 803 l 537 472 l 506 441 l 475 472 l 475 803 l 506 834 l 537 803 m 130 396 l 130 65 l 99 34 l 68 65 l 68 396 l 99 427 l 130 396 m 130 803 l 130 472 l 99 441 l 68 472 l 68 803 l 99 834 l 130 803 m 537 396 l 537 65 l 506 34 l 475 65 l 475 396 l 506 427 l 537 396 m 192 811 l 302 547 l 294 494 l 248 518 l 138 786 l 146 835 l 192 811 m 454 834 l 470 787 l 361 518 l 321 495 l 304 547 l 413 811 l 454 834 z "},"N":{"ha":605,"x_min":68,"x_max":537,"o":"m 537 796 l 537 465 l 506 434 l 475 465 l 475 796 l 506 827 l 537 796 m 130 389 l 130 58 l 99 27 l 68 58 l 68 389 l 99 420 l 130 389 m 130 796 l 130 465 l 99 434 l 68 465 l 68 796 l 99 827 l 130 796 m 537 389 l 537 58 l 506 27 l 475 58 l 475 389 l 506 420 l 537 389 m 192 777 l 302 513 l 294 460 l 248 484 l 138 752 l 146 801 l 192 777 m 349 431 l 459 168 l 451 115 l 405 138 l 295 406 l 303 455 l 349 431 z "},"O":{"ha":605,"x_min":68,"x_max":537,"o":"m 465 873 l 498 841 l 465 808 l 137 808 l 104 841 l 137 873 l 465 873 m 537 803 l 537 472 l 506 441 l 475 472 l 475 803 l 506 834 l 537 803 m 130 396 l 130 65 l 99 34 l 68 65 l 68 396 l 99 427 l 130 396 m 130 803 l 130 472 l 99 441 l 68 472 l 68 803 l 99 834 l 130 803 m 537 396 l 537 65 l 506 34 l 475 65 l 475 396 l 506 427 l 537 396 m 467 60 l 500 27 l 467 -5 l 139 -5 l 106 27 l 139 60 l 467 60 z "},"P":{"ha":605,"x_min":68,"x_max":537,"o":"m 465 873 l 498 841 l 465 808 l 137 808 l 104 841 l 137 873 l 465 873 m 537 803 l 537 472 l 506 441 l 475 472 l 475 803 l 506 834 l 537 803 m 130 396 l 130 65 l 99 34 l 68 65 l 68 396 l 99 427 l 130 396 m 130 803 l 130 472 l 99 441 l 68 472 l 68 803 l 99 834 l 130 803 m 467 463 l 500 430 l 467 397 l 139 397 l 106 430 l 139 463 l 467 463 z "},"Q":{"ha":748,"x_min":68,"x_max":680,"o":"m 465 873 l 498 841 l 465 808 l 137 808 l 104 841 l 137 873 l 465 873 m 537 803 l 537 472 l 506 441 l 475 472 l 475 803 l 506 834 l 537 803 m 130 396 l 130 65 l 99 34 l 68 65 l 68 396 l 99 427 l 130 396 m 130 803 l 130 472 l 99 441 l 68 472 l 68 803 l 99 834 l 130 803 m 537 396 l 537 65 l 506 34 l 475 65 l 475 396 l 506 427 l 537 396 m 467 60 l 500 27 l 467 -5 l 139 -5 l 106 27 l 139 60 l 467 60 m 378 289 l 462 209 l 462 156 l 416 156 l 332 240 l 332 289 l 378 289 m 596 155 l 680 75 l 680 22 l 634 22 l 550 106 l 550 155 l 596 155 z "},"R":{"ha":663,"x_min":68,"x_max":595,"o":"m 465 867 l 498 834 l 465 802 l 137 802 l 104 834 l 137 867 l 465 867 m 537 796 l 537 465 l 506 434 l 475 465 l 475 796 l 506 827 l 537 796 m 130 389 l 130 58 l 99 27 l 68 58 l 68 389 l 99 420 l 130 389 m 130 796 l 130 465 l 99 434 l 68 465 l 68 796 l 99 827 l 130 796 m 467 456 l 500 423 l 467 391 l 139 391 l 106 423 l 139 456 l 467 456 m 485 363 l 595 100 l 587 47 l 541 71 l 431 338 l 439 387 l 485 363 z "},"S":{"ha":605,"x_min":68,"x_max":537,"o":"m 465 873 l 498 841 l 465 808 l 137 808 l 104 841 l 137 873 l 465 873 m 130 803 l 130 472 l 99 441 l 68 472 l 68 803 l 99 834 l 130 803 m 537 396 l 537 65 l 506 34 l 475 65 l 475 396 l 506 427 l 537 396 m 467 60 l 500 27 l 467 -5 l 139 -5 l 106 27 l 139 60 l 467 60 m 467 469 l 500 437 l 467 404 l 139 404 l 106 437 l 139 469 l 467 469 m 131 125 l 131 65 l 100 34 l 68 65 l 68 125 l 100 156 l 131 125 m 537 803 l 537 743 l 506 712 l 475 743 l 475 803 l 506 834 l 537 803 z "},"T":{"ha":696,"x_min":68,"x_max":628,"o":"m 380 399 l 380 68 l 349 37 l 318 68 l 318 399 l 349 431 l 380 399 m 380 806 l 380 475 l 349 444 l 318 475 l 318 806 l 349 838 l 380 806 m 595 877 l 628 844 l 595 812 l 403 812 l 370 844 l 403 877 l 595 877 m 293 870 l 326 838 l 293 805 l 100 805 l 68 838 l 100 870 l 293 870 z "},"U":{"ha":605,"x_min":68,"x_max":537,"o":"m 537 803 l 537 472 l 506 441 l 475 472 l 475 803 l 506 834 l 537 803 m 130 396 l 130 65 l 99 34 l 68 65 l 68 396 l 99 427 l 130 396 m 130 803 l 130 472 l 99 441 l 68 472 l 68 803 l 99 834 l 130 803 m 537 396 l 537 65 l 506 34 l 475 65 l 475 396 l 506 427 l 537 396 m 467 60 l 500 27 l 467 -5 l 139 -5 l 106 27 l 139 60 l 467 60 z "},"V":{"ha":765,"x_min":68,"x_max":697,"o":"m 122 730 l 233 466 l 224 413 l 178 437 l 68 705 l 76 753 l 122 730 m 271 384 l 382 120 l 374 67 l 327 91 l 217 359 l 225 408 l 271 384 m 545 407 l 562 359 l 454 91 l 412 68 l 397 119 l 505 384 l 545 407 m 681 753 l 697 705 l 589 437 l 548 414 l 532 465 l 640 730 l 681 753 z "},"W":{"ha":605,"x_min":68,"x_max":537,"o":"m 537 803 l 537 472 l 506 441 l 475 472 l 475 803 l 506 834 l 537 803 m 130 396 l 130 65 l 99 34 l 68 65 l 68 396 l 99 427 l 130 396 m 130 803 l 130 472 l 99 441 l 68 472 l 68 803 l 99 834 l 130 803 m 537 396 l 537 65 l 506 34 l 475 65 l 475 396 l 506 427 l 537 396 m 359 384 l 469 120 l 461 67 l 415 91 l 305 359 l 313 408 l 359 384 m 284 407 l 300 359 l 192 91 l 151 68 l 135 119 l 243 384 l 284 407 z "},"X":{"ha":471,"x_min":68,"x_max":403,"o":"m 292 377 l 402 113 l 394 60 l 347 84 l 237 352 l 245 401 l 292 377 m 217 400 l 233 353 l 125 84 l 83 61 l 68 113 l 176 377 l 217 400 m 123 757 l 233 493 l 225 440 l 178 464 l 68 732 l 77 781 l 123 757 m 387 780 l 403 732 l 295 464 l 254 441 l 238 492 l 346 757 l 387 780 z "},"Y":{"ha":494,"x_min":68,"x_max":427,"o":"m 279 386 l 279 55 l 248 24 l 216 55 l 216 386 l 248 417 l 279 386 m 122 775 l 233 511 l 224 458 l 178 482 l 68 750 l 76 799 l 122 775 m 410 800 l 427 753 l 319 484 l 277 461 l 262 513 l 370 777 l 410 800 z "},"Z":{"ha":592,"x_min":68,"x_max":524,"o":"m 458 873 l 490 841 l 458 808 l 130 808 l 98 841 l 130 873 l 458 873 m 460 60 l 492 27 l 460 -5 l 132 -5 l 100 27 l 132 60 l 460 60 m 217 373 l 233 326 l 125 57 l 83 34 l 68 85 l 176 350 l 217 373 m 509 834 l 524 787 l 416 518 l 375 495 l 359 547 l 467 811 l 509 834 m 368 492 l 368 443 l 283 361 l 238 361 l 238 414 l 322 492 l 368 492 z "},"[":{"ha":330,"x_min":68,"x_max":262,"o":"m 130 396 l 130 65 l 99 34 l 68 65 l 68 396 l 99 427 l 130 396 m 130 803 l 130 472 l 99 441 l 68 472 l 68 803 l 99 834 l 130 803 m 230 880 l 262 848 l 230 815 l 139 815 l 106 848 l 139 880 l 230 880 m 230 60 l 262 27 l 230 -5 l 139 -5 l 106 27 l 139 60 l 230 60 z "},"\\":{"ha":592,"x_min":68,"x_max":524,"o":"m 122 926 l 233 663 l 224 610 l 178 633 l 68 901 l 76 950 l 122 926 m 264 581 l 375 317 l 367 264 l 320 288 l 210 555 l 218 604 l 264 581 m 414 235 l 524 -29 l 516 -82 l 469 -58 l 359 210 l 368 258 l 414 235 z "},"]":{"ha":329,"x_min":68,"x_max":261,"o":"m 261 810 l 261 479 l 230 448 l 199 479 l 199 810 l 230 841 l 261 810 m 261 403 l 261 72 l 230 41 l 199 72 l 199 403 l 230 434 l 261 403 m 191 880 l 224 848 l 191 815 l 100 815 l 68 848 l 100 880 l 191 880 m 198 60 l 231 27 l 198 -5 l 107 -5 l 75 27 l 107 60 l 198 60 z "},"^":{"ha":483,"x_min":68,"x_max":415,"o":"m 217 1010 l 233 963 l 125 694 l 83 671 l 68 723 l 176 987 l 217 1010 m 305 987 l 415 724 l 407 671 l 360 694 l 250 962 l 258 1011 l 305 987 z "},"_":{"ha":935,"x_min":68,"x_max":867,"o":"m 429 -62 l 461 -95 l 429 -127 l 100 -127 l 68 -95 l 100 -62 l 429 -62 m 835 -62 l 867 -95 l 835 -127 l 507 -127 l 474 -95 l 507 -62 l 835 -62 z "},"`":{"ha":334,"x_min":68,"x_max":266,"o":"m 114 982 l 266 834 l 266 781 l 220 781 l 68 933 l 68 982 l 114 982 z "},"a":{"ha":597,"x_min":68,"x_max":530,"o":"m 530 396 l 530 65 l 498 34 l 467 65 l 467 396 l 498 427 l 530 396 m 460 60 l 492 27 l 460 -5 l 132 -5 l 99 27 l 132 60 l 460 60 m 460 467 l 492 434 l 460 401 l 132 401 l 99 434 l 132 467 l 460 467 m 130 172 l 130 72 l 99 41 l 68 72 l 68 172 l 99 203 l 130 172 m 330 238 l 363 205 l 330 173 l 138 173 l 105 205 l 138 238 l 330 238 m 437 238 l 466 205 l 437 173 l 399 173 l 370 205 l 399 238 l 437 238 z "},"b":{"ha":605,"x_min":68,"x_max":537,"o":"m 130 396 l 130 65 l 99 34 l 68 65 l 68 396 l 99 427 l 130 396 m 130 803 l 130 472 l 99 441 l 68 472 l 68 803 l 99 834 l 130 803 m 537 396 l 537 65 l 506 34 l 475 65 l 475 396 l 506 427 l 537 396 m 467 60 l 500 27 l 467 -5 l 139 -5 l 106 27 l 139 60 l 467 60 m 467 463 l 500 431 l 467 398 l 139 398 l 106 431 l 139 463 l 467 463 z "},"c":{"ha":568,"x_min":68,"x_max":500,"o":"m 130 396 l 130 65 l 99 34 l 68 65 l 68 396 l 99 427 l 130 396 m 467 60 l 500 27 l 467 -5 l 139 -5 l 106 27 l 139 60 l 467 60 m 467 463 l 500 430 l 467 397 l 139 397 l 106 430 l 139 463 l 467 463 z "},"d":{"ha":605,"x_min":68,"x_max":537,"o":"m 537 803 l 537 472 l 506 441 l 475 472 l 475 803 l 506 834 l 537 803 m 130 396 l 130 65 l 99 34 l 68 65 l 68 396 l 99 427 l 130 396 m 537 396 l 537 65 l 506 34 l 475 65 l 475 396 l 506 427 l 537 396 m 467 60 l 500 27 l 467 -5 l 139 -5 l 106 27 l 139 60 l 467 60 m 467 463 l 500 431 l 467 398 l 139 398 l 106 431 l 139 463 l 467 463 z "},"e":{"ha":612,"x_min":68,"x_max":545,"o":"m 130 396 l 130 65 l 99 34 l 68 65 l 68 396 l 99 427 l 130 396 m 467 60 l 500 27 l 467 -5 l 139 -5 l 106 27 l 139 60 l 467 60 m 467 467 l 500 434 l 467 401 l 139 401 l 106 434 l 139 467 l 467 467 m 545 396 l 545 296 l 513 264 l 482 296 l 482 396 l 513 427 l 545 396 m 474 264 l 507 232 l 474 199 l 281 199 l 249 232 l 281 264 l 474 264 m 210 271 l 242 239 l 210 206 l 166 206 l 134 239 l 166 271 l 210 271 z "},"f":{"ha":570,"x_min":68,"x_max":502,"o":"m 261 396 l 261 65 l 230 34 l 199 65 l 199 396 l 230 427 l 261 396 m 261 803 l 261 472 l 230 441 l 199 472 l 199 803 l 230 834 l 261 803 m 368 467 l 400 434 l 368 401 l 277 401 l 244 434 l 277 467 l 368 467 m 191 467 l 224 434 l 191 401 l 100 401 l 68 434 l 100 467 l 191 467 m 469 873 l 502 841 l 469 808 l 277 808 l 244 841 l 277 873 l 469 873 z "},"g":{"ha":606,"x_min":68,"x_max":538,"o":"m 130 396 l 130 65 l 99 34 l 68 65 l 68 396 l 99 427 l 130 396 m 537 396 l 537 65 l 506 34 l 475 65 l 475 396 l 506 427 l 537 396 m 467 60 l 500 27 l 467 -5 l 139 -5 l 106 27 l 139 60 l 467 60 m 467 467 l 500 434 l 467 401 l 139 401 l 106 434 l 139 467 l 467 467 m 538 -7 l 538 -203 l 507 -234 l 475 -203 l 475 -7 l 507 24 l 538 -7 m 467 -205 l 500 -237 l 467 -270 l 139 -270 l 106 -237 l 139 -205 l 467 -205 z "},"h":{"ha":605,"x_min":68,"x_max":537,"o":"m 130 396 l 130 65 l 99 34 l 68 65 l 68 396 l 99 427 l 130 396 m 130 803 l 130 472 l 99 441 l 68 472 l 68 803 l 99 834 l 130 803 m 537 396 l 537 65 l 506 34 l 475 65 l 475 396 l 506 427 l 537 396 m 467 467 l 500 434 l 467 401 l 139 401 l 106 434 l 139 467 l 467 467 z "},"i":{"ha":199,"x_min":68,"x_max":131,"o":"m 130 403 l 130 72 l 99 41 l 68 72 l 68 403 l 99 434 l 130 403 m 131 518 l 131 472 l 100 441 l 68 472 l 68 518 l 100 549 l 131 518 z "},"j":{"ha":463,"x_min":68,"x_max":395,"o":"m 394 376 l 394 45 l 363 14 l 332 45 l 332 376 l 363 407 l 394 376 m 324 -225 l 357 -258 l 324 -290 l 132 -290 l 99 -258 l 132 -225 l 324 -225 m 130 -174 l 130 -220 l 99 -251 l 68 -220 l 68 -174 l 99 -142 l 130 -174 m 395 496 l 395 450 l 363 418 l 332 450 l 332 496 l 363 527 l 395 496 m 395 -18 l 395 -213 l 363 -244 l 332 -213 l 332 -18 l 363 14 l 395 -18 z "},"k":{"ha":545,"x_min":68,"x_max":477,"o":"m 130 396 l 130 65 l 99 34 l 68 65 l 68 396 l 99 427 l 130 396 m 130 803 l 130 472 l 99 441 l 68 472 l 68 803 l 99 834 l 130 803 m 189 419 l 477 136 l 477 83 l 431 83 l 143 370 l 143 419 l 189 419 m 443 568 l 443 519 l 291 370 l 245 370 l 245 423 l 397 568 l 443 568 z "},"l":{"ha":198,"x_min":68,"x_max":130,"o":"m 130 396 l 130 65 l 99 34 l 68 65 l 68 396 l 99 427 l 130 396 m 130 803 l 130 472 l 99 441 l 68 472 l 68 803 l 99 834 l 130 803 z "},"m":{"ha":782,"x_min":68,"x_max":714,"o":"m 422 389 l 422 58 l 391 27 l 360 58 l 360 389 l 391 420 l 422 389 m 130 382 l 130 52 l 99 20 l 68 52 l 68 382 l 99 414 l 130 382 m 714 382 l 714 52 l 683 20 l 652 52 l 652 382 l 683 414 l 714 382 m 338 453 l 371 420 l 338 388 l 146 388 l 113 420 l 146 453 l 338 453 m 639 453 l 671 420 l 639 388 l 446 388 l 414 420 l 446 453 l 639 453 z "},"n":{"ha":605,"x_min":68,"x_max":537,"o":"m 130 396 l 130 65 l 99 34 l 68 65 l 68 396 l 99 427 l 130 396 m 537 396 l 537 65 l 506 34 l 475 65 l 475 396 l 506 427 l 537 396 m 467 473 l 500 441 l 467 408 l 139 408 l 106 441 l 139 473 l 467 473 z "},"o":{"ha":605,"x_min":68,"x_max":537,"o":"m 130 396 l 130 65 l 99 34 l 68 65 l 68 396 l 99 427 l 130 396 m 537 396 l 537 65 l 506 34 l 475 65 l 475 396 l 506 427 l 537 396 m 467 60 l 500 27 l 467 -5 l 139 -5 l 106 27 l 139 60 l 467 60 m 467 467 l 500 434 l 467 401 l 139 401 l 106 434 l 139 467 l 467 467 z "},"p":{"ha":605,"x_min":68,"x_max":537,"o":"m 130 396 l 130 65 l 99 34 l 68 65 l 68 396 l 99 427 l 130 396 m 537 396 l 537 65 l 506 34 l 475 65 l 475 396 l 506 427 l 537 396 m 467 60 l 500 27 l 467 -5 l 139 -5 l 106 27 l 139 60 l 467 60 m 467 467 l 500 434 l 467 401 l 139 401 l 106 434 l 139 467 l 467 467 m 138 -11 l 138 -206 l 106 -237 l 75 -206 l 75 -11 l 106 20 l 138 -11 z "},"q":{"ha":734,"x_min":68,"x_max":673,"o":"m 130 396 l 130 65 l 99 34 l 68 65 l 68 396 l 99 427 l 130 396 m 537 396 l 537 65 l 506 34 l 475 65 l 475 396 l 506 427 l 537 396 m 467 60 l 500 27 l 467 -5 l 139 -5 l 106 27 l 139 60 l 467 60 m 467 467 l 500 434 l 467 401 l 139 401 l 106 434 l 139 467 l 467 467 m 538 -11 l 538 -206 l 507 -237 l 475 -206 l 475 -11 l 507 20 l 538 -11 m 673 -110 l 673 -159 l 589 -241 l 543 -241 l 543 -187 l 627 -110 l 673 -110 z "},"r":{"ha":441,"x_min":68,"x_max":374,"o":"m 130 396 l 130 65 l 99 34 l 68 65 l 68 396 l 99 427 l 130 396 m 341 467 l 374 434 l 341 401 l 149 401 l 116 434 l 149 467 l 341 467 z "},"s":{"ha":456,"x_min":68,"x_max":395,"o":"m 395 254 l 395 58 l 363 27 l 332 58 l 332 254 l 363 285 l 395 254 m 324 60 l 357 27 l 324 -5 l 132 -5 l 99 27 l 132 60 l 324 60 m 324 317 l 357 285 l 324 252 l 132 252 l 99 285 l 132 317 l 324 317 m 130 518 l 130 323 l 99 292 l 68 323 l 68 518 l 99 549 l 130 518 m 331 589 l 363 556 l 331 524 l 138 524 l 106 556 l 138 589 l 331 589 z "},"t":{"ha":468,"x_min":68,"x_max":400,"o":"m 261 396 l 261 65 l 230 34 l 199 65 l 199 396 l 230 427 l 261 396 m 261 803 l 261 472 l 230 441 l 199 472 l 199 803 l 230 834 l 261 803 m 368 467 l 400 434 l 368 401 l 277 401 l 244 434 l 277 467 l 368 467 m 191 467 l 224 434 l 191 401 l 100 401 l 68 434 l 100 467 l 191 467 z "},"u":{"ha":490,"x_min":68,"x_max":422,"o":"m 130 396 l 130 65 l 99 34 l 68 65 l 68 396 l 99 427 l 130 396 m 422 396 l 422 65 l 391 34 l 360 65 l 360 396 l 391 427 l 422 396 m 345 60 l 378 27 l 345 -5 l 153 -5 l 120 27 l 153 60 l 345 60 z "},"v":{"ha":492,"x_min":68,"x_max":425,"o":"m 122 343 l 233 79 l 224 26 l 178 50 l 68 318 l 76 367 l 122 343 m 408 366 l 425 319 l 317 50 l 275 27 l 260 79 l 368 343 l 408 366 z "},"w":{"ha":605,"x_min":68,"x_max":537,"o":"m 334 376 l 334 45 l 303 14 l 272 45 l 272 376 l 303 407 l 334 376 m 130 376 l 130 45 l 99 14 l 68 45 l 68 376 l 99 407 l 130 376 m 537 376 l 537 45 l 506 14 l 475 45 l 475 376 l 506 407 l 537 376 m 243 53 l 276 20 l 243 -12 l 153 -12 l 120 20 l 153 53 l 243 53 m 454 53 l 486 20 l 454 -12 l 363 -12 l 330 20 l 363 53 l 454 53 z "},"x":{"ha":551,"x_min":68,"x_max":483,"o":"m 483 406 l 483 357 l 331 207 l 285 207 l 285 260 l 437 406 l 483 406 m 114 406 l 266 258 l 266 205 l 220 205 l 68 357 l 68 406 l 114 406 m 331 189 l 483 41 l 483 -12 l 437 -12 l 285 140 l 285 189 l 331 189 m 266 186 l 266 138 l 114 -12 l 68 -12 l 68 41 l 220 186 l 266 186 z "},"y":{"ha":490,"x_min":68,"x_max":422,"o":"m 261 7 l 277 -41 l 170 -309 l 128 -332 l 113 -281 l 220 -16 l 261 7 m 406 353 l 422 305 l 315 37 l 273 14 l 258 65 l 366 330 l 406 353 m 122 323 l 233 59 l 224 6 l 178 30 l 68 298 l 76 347 l 122 323 z "},"z":{"ha":529,"x_min":68,"x_max":461,"o":"m 429 467 l 461 434 l 429 401 l 100 401 l 68 434 l 100 467 l 429 467 m 429 60 l 461 27 l 429 -5 l 100 -5 l 68 27 l 100 60 l 429 60 m 431 397 l 431 348 l 144 62 l 98 62 l 98 116 l 385 397 l 431 397 z "},"{":{"ha":601,"x_min":68,"x_max":533,"o":"m 500 1090 l 533 1058 l 500 1025 l 308 1025 l 275 1058 l 308 1090 l 500 1090 m 500 -130 l 533 -163 l 500 -195 l 308 -195 l 275 -163 l 308 -130 l 500 -130 m 286 220 l 286 -111 l 255 -142 l 224 -111 l 224 220 l 255 251 l 286 220 m 286 1027 l 286 696 l 255 665 l 224 696 l 224 1027 l 255 1058 l 286 1027 m 273 663 l 273 614 l 121 465 l 75 465 l 75 518 l 227 663 l 273 663 m 114 453 l 266 305 l 266 252 l 220 252 l 68 404 l 68 453 l 114 453 z "},"|":{"ha":198,"x_min":68,"x_max":130,"o":"m 130 986 l 130 655 l 99 624 l 68 655 l 68 986 l 99 1017 l 130 986 m 130 186 l 130 -145 l 99 -176 l 68 -145 l 68 186 l 99 217 l 130 186 m 130 586 l 130 255 l 99 224 l 68 255 l 68 586 l 99 617 l 130 586 z "},"}":{"ha":594,"x_min":68,"x_max":526,"o":"m 307 1090 l 339 1058 l 307 1025 l 114 1025 l 81 1058 l 114 1090 l 307 1090 m 293 -130 l 326 -163 l 293 -195 l 100 -195 l 68 -163 l 100 -130 l 293 -130 m 363 213 l 363 -118 l 332 -149 l 301 -118 l 301 213 l 332 244 l 363 213 m 370 1017 l 370 686 l 339 654 l 308 686 l 308 1017 l 339 1048 l 370 1017 m 374 650 l 526 502 l 526 449 l 480 449 l 328 601 l 328 650 l 374 650 m 526 444 l 526 395 l 374 245 l 328 245 l 328 299 l 480 444 l 526 444 z "},"~":{"ha":781,"x_min":68,"x_max":713,"o":"m 266 600 l 266 551 l 114 401 l 68 401 l 68 455 l 220 600 l 266 600 m 338 602 l 490 454 l 490 401 l 444 401 l 292 553 l 292 602 l 338 602 m 713 600 l 713 551 l 562 401 l 515 401 l 515 455 l 667 600 l 713 600 z "},"¡":{"ha":136,"x_min":0,"x_max":0,"o":""},"¢":{"ha":136,"x_min":0,"x_max":0,"o":""},"£":{"ha":730,"x_min":68,"x_max":662,"o":"m 526 908 q 419 929 478 929 l 418 929 q 292 862 351 929 q 236 703 236 800 q 237 682 236 692 q 271 503 237 592 l 517 503 l 517 451 l 294 451 q 311 419 299 439 q 335 322 335 375 q 231 73 335 211 l 494 73 q 620 163 580 73 l 662 162 l 587 -5 l 94 -5 l 94 36 q 221 317 221 197 q 199 412 221 368 q 179 451 187 433 l 68 451 l 68 503 l 157 503 q 120 669 120 593 q 205 908 120 825 q 416 991 290 991 l 418 991 q 546 982 469 991 q 623 954 623 972 l 623 839 l 576 839 q 526 908 572 882 z "},"¤":{"ha":671,"x_min":68,"x_max":603,"o":"m 231 384 q 297 347 258 357 q 336 341 316 341 q 374 347 355 341 q 439 384 412 357 q 477 449 466 411 q 483 486 483 468 q 477 524 483 505 q 439 589 466 562 q 374 626 412 615 q 335 631 354 631 q 296 625 316 631 q 231 589 258 614 q 195 524 206 562 q 189 486 189 505 q 194 450 189 468 q 231 384 205 411 m 149 612 l 68 692 l 129 754 l 209 673 q 275 704 237 693 q 336 713 305 713 q 393 705 364 713 q 461 673 433 694 l 542 754 l 603 692 l 523 612 q 553 546 541 585 q 562 486 562 516 q 553 427 562 457 q 523 360 541 388 l 603 280 l 542 218 l 461 299 q 395 267 433 278 q 336 259 365 259 q 277 267 307 259 q 209 299 238 278 l 129 218 l 68 280 l 149 360 q 118 427 130 388 q 110 486 110 457 q 119 547 110 517 q 149 612 130 585 z "},"¥":{"ha":1002,"x_min":68,"x_max":935,"o":"m 433 153 l 432 317 q 431 340 432 330 q 429 357 430 351 l 104 357 q 87 363 93 357 q 81 380 81 369 q 86 397 81 392 q 104 403 92 403 l 411 403 l 336 509 l 105 509 q 86 514 92 509 q 81 530 81 519 q 86 548 81 543 q 104 553 92 553 l 302 553 q 236 649 280 583 q 85 781 148 781 q 73 786 79 781 q 68 798 68 791 q 76 820 68 813 q 101 827 85 827 q 184 822 119 827 q 296 817 250 817 l 355 817 q 386 811 379 817 q 393 789 393 805 q 381 774 393 779 q 353 770 369 770 q 340 771 349 770 q 328 772 332 772 q 304 767 312 772 q 297 754 297 762 q 308 721 297 743 q 338 670 319 699 l 446 520 q 469 484 455 507 q 513 439 495 439 q 523 441 519 439 q 532 450 527 444 l 720 719 q 727 735 724 726 q 730 750 730 745 q 725 764 730 760 q 702 772 720 769 q 675 775 692 774 q 639 798 639 777 q 646 817 639 810 q 665 823 652 823 q 675 823 667 823 q 749 818 713 818 l 843 818 q 887 819 863 818 q 912 819 911 819 q 927 815 920 819 q 935 804 933 812 q 905 774 935 779 q 887 771 893 772 q 789 693 846 762 q 781 683 785 687 l 674 553 l 883 553 q 902 548 894 553 q 909 532 909 543 q 904 514 909 519 q 886 509 899 509 l 639 509 q 576 439 609 471 q 538 403 543 407 l 883 403 q 903 398 896 403 q 909 382 909 393 q 903 363 909 370 q 886 357 897 357 l 530 357 q 530 342 530 355 q 529 322 529 329 l 530 176 q 534 77 530 100 q 545 50 537 54 q 619 37 565 39 q 673 11 673 36 q 665 -7 673 0 q 646 -14 657 -14 q 622 -11 644 -14 q 578 -8 599 -8 q 436 -11 516 -8 q 340 -14 357 -14 q 310 -10 318 -14 q 302 5 302 -7 q 309 22 302 16 q 336 32 316 28 q 353 35 342 33 q 414 56 403 46 q 429 85 425 64 q 433 153 433 107 z "},"¦":{"ha":198,"x_min":68,"x_max":130,"o":"m 130 213 l 130 -118 l 99 -149 l 68 -118 l 68 213 l 99 244 l 130 213 m 130 898 l 130 567 l 99 536 l 68 567 l 68 898 l 99 929 l 130 898 z "},"§":{"ha":601,"x_min":68,"x_max":533,"o":"m 326 220 q 395 257 366 232 q 443 366 443 300 q 442 368 442 367 l 441 368 q 438 389 440 382 q 362 474 424 429 q 275 494 321 494 q 188 465 220 494 q 157 387 157 435 q 326 220 157 307 m 273 -229 q 396 -183 348 -225 q 443 -76 443 -142 q 231 106 443 5 q 111 201 147 150 q 74 324 74 252 q 136 489 74 427 q 236 543 182 534 l 225 548 q 104 643 141 592 q 68 766 68 694 q 130 931 68 869 q 279 991 186 986 q 290 991 284 991 l 292 991 q 405 980 337 991 q 473 947 473 968 l 473 810 l 430 810 q 378 900 427 867 q 279 934 332 931 l 269 934 q 186 905 217 934 q 156 829 156 876 q 348 652 156 744 q 488 553 450 606 q 527 422 527 500 q 456 227 527 304 q 399 188 425 200 q 494 111 463 155 q 533 -19 533 58 q 463 -215 533 -138 q 277 -288 378 -286 l 260 -288 q 149 -276 217 -288 q 81 -243 81 -264 l 81 -106 l 124 -106 q 176 -196 127 -163 q 273 -229 221 -226 z "},"¨":{"ha":538,"x_min":68,"x_max":470,"o":"m 79 878 l 127 927 q 146 937 137 937 q 167 926 155 937 l 214 876 q 222 855 222 865 q 213 833 222 844 l 166 782 q 146 769 153 769 q 127 779 136 769 l 75 837 q 68 857 68 847 q 79 878 68 868 m 327 878 l 375 927 q 394 937 385 937 q 414 927 403 937 l 462 876 q 470 855 470 865 q 460 833 470 844 l 414 782 q 394 769 401 769 q 374 779 383 769 l 323 838 q 315 857 315 847 q 327 878 315 868 z "},"©":{"ha":1143,"x_min":68,"x_max":1076,"o":"m 574 993 q 765 954 673 993 q 928 844 857 916 q 1037 681 998 775 q 1076 487 1076 587 q 1037 293 1076 386 q 926 129 998 201 q 762 20 854 57 q 569 -18 671 -18 q 379 20 469 -18 q 216 130 289 58 q 106 293 144 201 q 68 487 68 385 q 106 681 68 589 q 215 844 144 774 q 378 954 285 916 q 574 993 471 993 m 249 808 q 151 661 185 743 q 117 487 117 578 q 151 314 117 395 q 250 167 185 232 q 397 68 316 102 q 570 34 479 34 q 744 68 662 34 q 892 165 827 102 q 992 314 957 231 q 1027 487 1027 397 q 992 661 1027 576 q 895 808 957 745 q 747 907 830 872 q 573 941 663 941 q 397 907 481 941 q 249 808 313 872 m 591 146 q 410 193 494 146 q 282 320 326 239 q 238 488 238 401 q 283 656 238 575 q 412 783 328 738 q 586 829 496 829 q 637 824 612 829 q 689 810 663 820 q 694 810 692 810 q 709 830 705 810 l 743 830 l 796 685 l 758 685 q 670 769 722 749 q 571 787 621 787 l 561 787 q 450 739 504 781 q 369 622 397 697 q 347 499 347 562 q 349 466 347 482 q 395 317 356 385 q 494 215 434 248 q 606 187 543 189 q 734 224 688 187 q 781 311 781 260 l 825 311 l 825 237 q 758 174 825 202 q 591 146 690 146 z "},"ª":{"ha":136,"x_min":0,"x_max":0,"o":""},"«":{"ha":601,"x_min":68,"x_max":533,"o":"m 68 325 l 306 536 l 321 536 l 321 503 l 183 325 l 321 146 l 321 114 l 306 114 l 68 325 m 280 325 l 518 536 l 533 536 l 533 503 l 395 325 l 533 146 l 533 114 l 518 114 l 280 325 z "},"¬":{"ha":713,"x_min":68,"x_max":646,"o":"m 68 526 l 646 526 l 646 184 l 642 181 l 570 181 l 570 447 l 68 447 l 68 526 z "},"®":{"ha":1143,"x_min":68,"x_max":1076,"o":"m 517 740 l 517 493 l 519 489 q 555 436 534 452 q 591 422 574 422 l 595 422 q 635 447 615 425 q 665 510 654 469 q 673 578 673 543 q 673 596 673 587 q 654 679 670 641 q 618 728 639 716 q 576 740 597 740 l 517 740 m 678 389 l 730 315 q 829 222 797 222 l 856 222 l 856 177 l 613 177 l 613 222 l 648 222 q 664 231 664 222 q 618 304 664 249 l 569 372 q 517 395 541 372 l 517 298 q 538 222 517 222 l 578 222 l 578 177 l 355 177 l 355 222 l 389 222 q 410 298 410 222 l 410 663 q 389 740 410 740 l 355 740 l 355 798 l 601 798 q 688 769 645 798 q 752 690 729 741 q 774 584 774 639 q 752 479 774 530 q 678 389 730 429 m 574 993 q 765 954 673 993 q 928 844 857 916 q 1037 681 998 775 q 1076 487 1076 587 q 1037 293 1076 386 q 926 129 998 201 q 762 20 854 57 q 569 -18 671 -18 q 379 20 469 -18 q 216 130 289 58 q 106 293 144 201 q 68 487 68 385 q 106 681 68 589 q 215 844 144 774 q 378 954 285 916 q 574 993 471 993 m 249 808 q 151 661 185 743 q 117 487 117 578 q 151 314 117 395 q 250 167 185 232 q 397 68 316 102 q 570 34 479 34 q 744 68 662 34 q 892 165 827 102 q 992 314 957 231 q 1027 487 1027 397 q 992 661 1027 576 q 895 808 957 745 q 747 907 830 872 q 573 941 663 941 q 397 907 481 941 q 249 808 313 872 z "},"¯":{"ha":136,"x_min":0,"x_max":0,"o":""},"°":{"ha":521,"x_min":68,"x_max":453,"o":"m 261 925 q 164 885 204 925 q 123 789 123 845 q 163 693 123 732 q 261 654 203 654 q 358 693 319 654 q 397 789 397 732 q 358 885 397 845 q 261 925 318 925 m 261 983 q 397 927 340 983 q 453 789 453 870 q 396 652 453 709 q 260 595 339 595 q 123 652 179 595 q 68 789 68 708 q 124 927 68 871 q 261 983 181 983 z "},"±":{"ha":136,"x_min":0,"x_max":0,"o":""},"²":{"ha":136,"x_min":0,"x_max":0,"o":""},"³":{"ha":136,"x_min":0,"x_max":0,"o":""},"´":{"ha":465,"x_min":68,"x_max":397,"o":"m 275 937 q 313 969 299 961 q 342 978 328 978 q 381 963 366 978 q 397 924 397 948 q 385 892 397 907 q 352 864 374 878 l 127 726 l 68 726 l 275 937 z "},"µ":{"ha":136,"x_min":0,"x_max":0,"o":""},"¶":{"ha":711,"x_min":68,"x_max":643,"o":"m 643 979 l 643 920 l 557 920 l 557 -5 l 493 -5 l 493 920 l 389 920 l 389 -5 l 323 -5 l 323 495 q 138 566 208 500 q 68 736 68 631 q 142 912 68 846 q 338 979 216 979 l 643 979 z "},"·":{"ha":313,"x_min":68,"x_max":245,"o":"m 80 506 l 136 563 q 158 574 147 574 q 181 562 168 574 l 236 503 q 245 479 245 490 q 235 454 245 467 l 180 395 q 158 380 165 380 q 136 391 146 380 l 76 459 q 68 481 68 470 q 80 506 68 494 z "},"¸":{"ha":420,"x_min":68,"x_max":353,"o":"m 68 -189 q 175 -227 130 -227 q 237 -213 219 -227 q 254 -172 254 -199 q 224 -134 254 -146 q 156 -123 197 -123 q 127 -125 145 -123 l 163 5 l 214 5 l 190 -64 q 225 -62 205 -62 q 319 -91 285 -62 q 353 -172 353 -119 q 311 -258 353 -227 q 200 -289 270 -289 q 68 -266 125 -289 l 68 -189 z "},"¹":{"ha":136,"x_min":0,"x_max":0,"o":""},"º":{"ha":136,"x_min":0,"x_max":0,"o":""},"»":{"ha":601,"x_min":68,"x_max":533,"o":"m 83 114 l 68 114 l 68 146 l 205 325 l 68 503 l 68 536 l 83 536 l 321 325 l 83 114 m 295 114 l 280 114 l 280 146 l 417 325 l 280 503 l 280 536 l 295 536 l 533 325 l 295 114 z "},"¼":{"ha":136,"x_min":0,"x_max":0,"o":""},"½":{"ha":136,"x_min":0,"x_max":0,"o":""},"¾":{"ha":136,"x_min":0,"x_max":0,"o":""},"¿":{"ha":136,"x_min":0,"x_max":0,"o":""},"À":{"ha":136,"x_min":0,"x_max":0,"o":""},"Á":{"ha":136,"x_min":0,"x_max":0,"o":""},"Â":{"ha":136,"x_min":0,"x_max":0,"o":""},"Ã":{"ha":136,"x_min":0,"x_max":0,"o":""},"Ä":{"ha":136,"x_min":0,"x_max":0,"o":""},"Å":{"ha":136,"x_min":0,"x_max":0,"o":""},"Æ":{"ha":136,"x_min":0,"x_max":0,"o":""},"Ç":{"ha":136,"x_min":0,"x_max":0,"o":""},"È":{"ha":136,"x_min":0,"x_max":0,"o":""},"É":{"ha":136,"x_min":0,"x_max":0,"o":""},"Ê":{"ha":136,"x_min":0,"x_max":0,"o":""},"Ë":{"ha":136,"x_min":0,"x_max":0,"o":""},"Ì":{"ha":136,"x_min":0,"x_max":0,"o":""},"Í":{"ha":136,"x_min":0,"x_max":0,"o":""},"Î":{"ha":136,"x_min":0,"x_max":0,"o":""},"Ï":{"ha":136,"x_min":0,"x_max":0,"o":""},"Ð":{"ha":136,"x_min":0,"x_max":0,"o":""},"Ñ":{"ha":136,"x_min":0,"x_max":0,"o":""},"Ò":{"ha":136,"x_min":0,"x_max":0,"o":""},"Ó":{"ha":136,"x_min":0,"x_max":0,"o":""},"Ô":{"ha":136,"x_min":0,"x_max":0,"o":""},"Õ":{"ha":136,"x_min":0,"x_max":0,"o":""},"Ö":{"ha":136,"x_min":0,"x_max":0,"o":""},"×":{"ha":618,"x_min":68,"x_max":551,"o":"m 309 412 l 142 245 l 68 319 l 235 486 l 68 654 l 142 728 l 309 560 l 477 728 l 551 654 l 383 486 l 551 319 l 477 245 l 309 412 z "},"Ø":{"ha":136,"x_min":0,"x_max":0,"o":""},"Ù":{"ha":136,"x_min":0,"x_max":0,"o":""},"Ú":{"ha":136,"x_min":0,"x_max":0,"o":""},"Û":{"ha":136,"x_min":0,"x_max":0,"o":""},"Ü":{"ha":136,"x_min":0,"x_max":0,"o":""},"Ý":{"ha":136,"x_min":0,"x_max":0,"o":""},"Þ":{"ha":136,"x_min":0,"x_max":0,"o":""},"ß":{"ha":136,"x_min":0,"x_max":0,"o":""},"à":{"ha":136,"x_min":0,"x_max":0,"o":""},"á":{"ha":136,"x_min":0,"x_max":0,"o":""},"â":{"ha":136,"x_min":0,"x_max":0,"o":""},"ã":{"ha":136,"x_min":0,"x_max":0,"o":""},"ä":{"ha":136,"x_min":0,"x_max":0,"o":""},"å":{"ha":136,"x_min":0,"x_max":0,"o":""},"æ":{"ha":136,"x_min":0,"x_max":0,"o":""},"ç":{"ha":136,"x_min":0,"x_max":0,"o":""},"è":{"ha":136,"x_min":0,"x_max":0,"o":""},"é":{"ha":136,"x_min":0,"x_max":0,"o":""},"ê":{"ha":136,"x_min":0,"x_max":0,"o":""},"ë":{"ha":136,"x_min":0,"x_max":0,"o":""},"ì":{"ha":136,"x_min":0,"x_max":0,"o":""},"í":{"ha":136,"x_min":0,"x_max":0,"o":""},"î":{"ha":136,"x_min":0,"x_max":0,"o":""},"ï":{"ha":136,"x_min":0,"x_max":0,"o":""},"ð":{"ha":136,"x_min":0,"x_max":0,"o":""},"ñ":{"ha":136,"x_min":0,"x_max":0,"o":""},"ò":{"ha":136,"x_min":0,"x_max":0,"o":""},"ó":{"ha":136,"x_min":0,"x_max":0,"o":""},"ô":{"ha":136,"x_min":0,"x_max":0,"o":""},"õ":{"ha":136,"x_min":0,"x_max":0,"o":""},"ö":{"ha":136,"x_min":0,"x_max":0,"o":""},"÷":{"ha":713,"x_min":68,"x_max":646,"o":"m 68 433 l 68 539 l 642 539 l 646 536 l 646 433 l 68 433 m 280 281 l 336 338 q 358 349 347 349 q 381 336 368 349 l 436 278 q 446 254 446 265 q 435 229 446 241 l 380 170 q 358 155 366 155 q 336 165 346 155 l 276 234 q 268 256 268 245 q 280 281 268 269 m 280 751 l 336 808 q 358 819 347 819 q 381 806 368 819 l 436 748 q 446 724 446 735 q 435 699 446 711 l 380 640 q 358 625 366 625 q 336 635 346 625 l 276 704 q 268 726 268 715 q 280 751 268 739 z "},"ø":{"ha":136,"x_min":0,"x_max":0,"o":""},"ù":{"ha":136,"x_min":0,"x_max":0,"o":""},"ú":{"ha":136,"x_min":0,"x_max":0,"o":""},"û":{"ha":136,"x_min":0,"x_max":0,"o":""},"ü":{"ha":136,"x_min":0,"x_max":0,"o":""},"ý":{"ha":136,"x_min":0,"x_max":0,"o":""},"þ":{"ha":136,"x_min":0,"x_max":0,"o":""},"ÿ":{"ha":136,"x_min":0,"x_max":0,"o":""},"ı":{"ha":452,"x_min":68,"x_max":385,"o":"m 286 151 q 349 39 286 39 l 385 39 l 385 -5 l 77 -5 l 77 39 l 112 39 q 176 151 176 39 l 176 444 q 104 491 176 491 l 68 491 l 68 530 q 246 655 220 578 l 286 655 l 286 151 z "},"ˆ":{"ha":548,"x_min":68,"x_max":480,"o":"m 68 726 l 232 978 l 316 978 l 480 726 l 431 726 l 274 871 l 117 726 l 68 726 z "},"ˇ":{"ha":548,"x_min":68,"x_max":480,"o":"m 68 978 l 117 978 l 274 834 l 431 978 l 480 978 l 316 726 l 232 726 l 68 978 z "},"ˉ":{"ha":494,"x_min":68,"x_max":426,"o":"m 68 805 l 68 901 l 426 901 l 426 805 l 68 805 z "},"˘":{"ha":542,"x_min":68,"x_max":474,"o":"m 68 920 l 111 920 q 160 847 122 869 q 271 825 199 825 q 382 847 345 825 q 431 920 419 869 l 474 920 q 408 774 459 821 q 271 726 356 726 q 136 774 188 726 q 68 920 83 822 z "},"˙":{"ha":290,"x_min":68,"x_max":222,"o":"m 79 878 l 125 927 q 136 934 130 932 q 146 937 141 937 q 156 934 151 937 q 166 927 161 932 l 214 876 q 220 867 218 872 q 222 854 222 862 q 219 843 221 848 q 213 833 218 838 l 165 781 q 153 771 156 773 q 146 769 149 769 q 134 771 139 769 q 125 778 129 773 l 75 837 q 70 845 71 840 q 68 857 68 850 q 71 868 68 862 q 79 878 73 873 z "},"˚":{"ha":385,"x_min":68,"x_max":317,"o":"m 127 852 q 146 808 127 827 q 191 790 164 790 q 237 808 218 790 q 255 852 255 827 q 236 896 255 877 q 191 914 218 914 q 146 896 165 914 q 127 852 127 877 m 68 852 q 104 942 68 906 q 191 978 140 978 q 280 942 244 978 q 317 852 317 905 q 280 763 317 799 q 191 726 244 726 q 104 763 140 726 q 68 852 68 799 z "},"˛":{"ha":395,"x_min":68,"x_max":328,"o":"m 269 5 q 184 -84 210 -46 q 158 -157 158 -122 q 175 -204 158 -186 q 222 -222 192 -222 q 267 -212 248 -222 q 301 -177 286 -201 l 328 -193 q 262 -265 300 -241 q 179 -289 224 -289 q 99 -263 130 -289 q 68 -198 68 -238 q 110 -89 68 -144 q 222 5 152 -33 l 269 5 z "},"˜":{"ha":535,"x_min":68,"x_max":467,"o":"m 467 943 q 418 829 452 865 q 330 793 385 793 l 328 793 q 250 808 293 793 q 174 825 205 825 q 135 812 148 825 q 113 762 121 799 l 68 762 q 117 879 82 842 q 207 916 151 916 q 284 900 238 916 q 359 884 327 884 l 362 884 q 399 897 385 884 q 423 943 413 909 l 467 943 z "},"˝":{"ha":547,"x_min":68,"x_max":479,"o":"m 68 726 l 170 920 q 202 964 186 951 q 235 978 218 978 q 271 963 256 978 q 286 927 286 948 q 278 901 286 914 q 256 871 271 887 l 116 726 l 68 726 m 261 726 l 363 920 q 395 964 380 951 q 429 978 411 978 q 464 963 449 978 q 479 927 479 948 q 471 901 479 914 q 450 871 464 887 l 309 726 l 261 726 z "},"–":{"ha":819,"x_min":68,"x_max":751,"o":"m 68 279 l 68 371 l 751 371 l 751 279 l 68 279 z "},"—":{"ha":1533,"x_min":68,"x_max":1465,"o":"m 68 279 l 68 371 l 1465 371 l 1465 279 l 68 279 z "},"‘":{"ha":315,"x_min":115,"x_max":317,"o":"m 178 1043 l 178 712 l 146 681 l 115 712 l 115 1043 l 146 1074 l 178 1043 m 285 704 l 317 671 l 285 639 l 194 639 l 161 671 l 194 704 l 285 704 z "},"’":{"ha":315,"x_min":-10,"x_max":190,"o":"m 190 1043 l 190 712 l 159 681 l 127 712 l 127 1043 l 159 1074 l 190 1043 m 113 1118 l 146 1086 l 113 1053 l 22 1053 l -10 1086 l 22 1118 l 113 1118 z "},"‚":{"ha":315,"x_min":3,"x_max":203,"o":"m 203 159 l 203 -172 l 172 -203 l 141 -172 l 141 159 l 172 190 l 203 159 m 127 234 l 159 201 l 127 169 l 36 169 l 3 201 l 36 234 l 127 234 z "},"“":{"ha":554,"x_min":-20,"x_max":408,"o":"m 42 1043 l 42 712 l 11 681 l -20 712 l -20 1043 l 11 1074 l 42 1043 m 149 704 l 182 671 l 149 639 l 58 639 l 26 671 l 58 704 l 149 704 m 42 1043 l 42 712 l 11 681 l -20 712 l -20 1043 l 11 1074 l 42 1043 m 149 704 l 182 671 l 149 639 l 58 639 l 26 671 l 58 704 l 149 704 m 268 1044 l 268 713 l 237 682 l 205 713 l 205 1044 l 237 1076 l 268 1044 m 375 705 l 408 673 l 375 640 l 284 640 l 252 673 l 284 705 l 375 705 z "},"”":{"ha":554,"x_min":3,"x_max":439,"o":"m 203 1010 l 203 679 l 172 648 l 141 679 l 141 1010 l 172 1041 l 203 1010 m 127 1085 l 159 1053 l 127 1020 l 36 1020 l 3 1053 l 36 1085 l 127 1085 m 439 1010 l 439 679 l 408 648 l 376 679 l 376 1010 l 408 1041 l 439 1010 m 362 1085 l 395 1053 l 362 1020 l 271 1020 l 239 1053 l 271 1085 l 362 1085 z "},"„":{"ha":554,"x_min":68,"x_max":486,"o":"m 151 196 q 216 150 184 196 q 247 43 247 104 q 198 -114 247 -33 q 96 -195 149 -195 l 96 -157 q 155 -32 146 -128 q 68 73 155 45 l 68 109 l 151 196 m 391 196 q 455 150 424 196 q 486 43 486 104 q 437 -114 486 -33 q 336 -195 388 -195 l 336 -157 q 395 -32 385 -128 q 307 73 395 45 l 307 109 l 391 196 z "},"†":{"ha":736,"x_min":68,"x_max":668,"o":"m 349 699 q 313 810 344 757 q 274 901 274 880 q 300 959 274 937 q 368 980 326 980 q 434 960 407 980 q 461 907 461 941 q 423 812 461 884 q 387 699 393 755 q 501 734 447 704 q 590 774 570 774 q 646 748 625 774 q 668 679 668 722 q 648 611 668 638 q 596 584 628 584 q 503 622 574 584 q 387 659 446 652 q 462 479 392 549 q 385 -189 389 165 l 351 -189 q 273 479 347 165 q 349 659 343 549 q 234 623 289 653 q 145 584 165 584 q 89 610 111 584 q 68 679 68 636 q 88 747 68 720 q 139 774 108 774 q 233 735 161 774 q 349 699 290 705 z "},"‡":{"ha":736,"x_min":68,"x_max":668,"o":"m 387 132 q 503 170 446 139 q 596 208 574 208 q 648 180 628 208 q 668 113 668 153 q 646 44 668 70 q 590 18 625 18 q 501 57 570 18 q 387 92 447 87 q 423 -20 393 37 q 461 -116 461 -93 q 434 -169 461 -149 q 368 -189 407 -189 q 300 -167 326 -189 q 274 -110 274 -146 q 313 -19 274 -89 q 349 92 344 35 q 233 56 290 87 q 139 18 161 18 q 88 45 108 18 q 68 113 68 72 q 89 181 68 155 q 145 208 111 208 q 234 168 165 208 q 349 132 289 138 q 273 396 343 277 q 349 659 343 514 q 234 623 289 653 q 145 584 165 584 q 89 610 111 584 q 68 679 68 636 q 88 747 68 720 q 139 774 108 774 q 233 735 161 774 q 349 699 290 705 q 313 810 344 757 q 274 901 274 880 q 300 959 274 937 q 368 980 326 980 q 434 960 407 980 q 461 907 461 941 q 423 812 461 884 q 387 699 393 755 q 501 734 447 704 q 590 774 570 774 q 646 748 625 774 q 668 679 668 722 q 648 611 668 638 q 596 584 628 584 q 503 622 574 584 q 387 659 446 652 q 463 396 392 514 q 387 132 392 277 z "},"•":{"ha":545,"x_min":68,"x_max":477,"o":"m 68 487 q 128 633 68 573 q 273 692 189 692 q 417 632 357 692 q 477 487 477 572 q 417 341 477 401 q 272 280 356 280 q 127 340 187 280 q 68 487 68 401 z "},"…":{"ha":1240,"x_min":68,"x_max":1172,"o":"m 80 117 l 136 174 q 158 185 147 185 q 181 173 168 185 l 236 115 q 245 91 245 102 q 235 66 245 78 l 180 6 q 158 -9 165 -9 q 136 2 146 -9 l 76 71 q 68 92 68 81 q 80 117 68 105 m 543 117 l 600 174 q 621 185 610 185 q 644 173 631 185 l 699 115 q 709 91 709 102 q 698 66 709 78 l 644 6 q 621 -9 629 -9 q 599 2 609 -9 l 539 71 q 531 92 531 81 q 543 117 531 105 m 1006 117 l 1063 174 q 1084 185 1074 185 q 1107 173 1095 185 l 1162 115 q 1172 91 1172 102 q 1161 66 1172 78 l 1107 6 q 1084 -9 1092 -9 q 1062 2 1072 -9 l 1002 71 q 994 92 994 81 q 1006 117 994 105 z "},"‹":{"ha":389,"x_min":68,"x_max":321,"o":"m 68 325 l 306 536 l 321 536 l 321 503 l 183 325 l 321 146 l 321 114 l 306 114 l 68 325 z "},"›":{"ha":389,"x_min":68,"x_max":321,"o":"m 83 114 l 68 114 l 68 146 l 205 325 l 68 503 l 68 536 l 83 536 l 321 325 l 83 114 z "},"⁄":{"ha":848,"x_min":68,"x_max":780,"o":"m 68 -25 l 712 977 l 780 977 l 137 -25 l 68 -25 z "},"₣":{"ha":837,"x_min":68,"x_max":769,"o":"m 203 237 l 71 237 l 71 288 l 203 288 l 203 779 q 137 933 203 933 l 68 933 l 68 978 l 694 978 l 769 810 l 726 810 q 600 934 686 934 l 386 933 q 321 779 321 933 l 321 546 l 562 546 q 625 583 625 546 l 625 628 l 667 628 l 667 385 l 625 385 l 625 431 q 562 468 625 468 l 321 468 l 321 288 l 452 288 l 452 237 l 321 237 l 321 193 q 386 39 321 39 l 456 39 l 456 -5 l 68 -5 l 68 39 l 137 39 q 203 193 203 39 l 203 237 z "},"₤":{"ha":728,"x_min":68,"x_max":661,"o":"m 526 911 q 419 932 477 932 l 418 932 q 292 865 352 932 q 236 703 236 802 q 237 682 236 692 q 258 541 237 610 l 517 541 l 517 494 l 274 494 q 289 459 281 477 l 529 459 l 529 413 l 313 413 q 335 322 335 374 q 228 71 335 212 l 494 71 q 619 160 579 71 l 661 159 l 588 -3 l 94 -3 l 94 35 q 221 317 221 196 q 201 410 221 369 l 197 413 l 80 413 l 80 459 l 176 459 q 160 494 168 477 l 68 494 l 68 541 l 144 541 q 120 669 120 610 q 205 906 120 823 q 418 989 290 989 q 547 979 470 989 q 623 954 623 969 l 623 842 l 576 842 q 526 911 572 884 z "},"₧":{"ha":1445,"x_min":68,"x_max":1377,"o":"m 321 933 l 321 491 q 325 481 322 486 q 397 379 352 413 q 473 350 435 350 q 486 351 480 350 q 570 400 531 356 q 627 517 609 445 q 642 637 642 576 q 642 669 642 654 q 609 815 637 747 q 537 911 581 883 q 463 934 500 934 q 448 933 456 934 l 321 933 m 1046 610 l 937 610 l 937 151 q 958 75 937 99 q 1004 52 976 55 l 956 181 l 998 182 q 1075 63 1036 92 q 1159 34 1113 34 l 1164 34 q 1264 68 1225 34 q 1302 156 1302 102 q 1129 304 1302 221 q 1030 382 1060 340 q 1000 484 1000 424 q 1054 616 1000 568 l 1046 610 m 747 612 q 715 483 743 547 q 617 360 680 404 q 487 317 555 317 q 355 361 418 317 q 321 389 333 376 l 321 193 q 386 39 321 39 l 456 39 l 456 -5 l 68 -5 l 68 39 l 137 39 q 203 193 203 39 l 203 779 q 137 933 203 933 l 68 933 l 68 978 l 491 978 q 616 935 554 977 q 714 813 678 892 q 749 655 749 735 l 752 655 q 895 896 895 655 l 937 896 l 937 655 l 1107 655 q 1183 669 1136 668 l 1184 669 q 1277 659 1221 669 q 1333 631 1333 650 l 1333 518 l 1296 518 q 1253 592 1293 565 q 1165 620 1213 620 q 1098 596 1123 620 q 1074 535 1074 573 q 1230 391 1074 466 q 1345 310 1314 353 q 1377 202 1377 266 q 1319 41 1377 104 q 1162 -18 1249 -17 q 1090 -11 1123 -18 q 1053 -7 1072 -7 q 1029 -9 1041 -7 q 989 -12 1010 -12 q 868 28 903 -12 q 829 146 833 68 l 827 146 l 827 612 l 747 612 z "},"€":{"ha":899,"x_min":68,"x_max":831,"o":"m 195 250 q 143 437 153 342 l 68 437 l 83 489 l 140 489 l 140 519 l 91 519 l 106 570 l 144 570 q 196 758 153 665 q 350 946 251 880 q 555 1012 450 1012 q 614 1006 584 1012 q 671 986 642 1000 q 680 983 675 983 q 701 1013 691 983 l 734 1013 l 793 812 l 758 811 q 666 932 724 903 q 608 954 637 947 l 608 957 q 544 966 578 966 q 521 965 532 966 q 370 889 441 957 q 264 706 299 821 q 239 570 243 636 l 719 570 l 705 519 l 237 519 q 237 489 237 504 l 696 489 l 682 437 l 242 437 q 297 243 252 338 q 426 85 347 138 q 571 39 494 40 q 742 100 695 41 q 791 227 791 159 l 831 227 l 831 124 q 753 33 831 73 q 571 -5 682 -4 q 348 62 447 -5 q 195 250 249 129 z "},"№":{"ha":136,"x_min":0,"x_max":0,"o":""},"™":{"ha":136,"x_min":0,"x_max":0,"o":""},"∂":{"ha":727,"x_min":68,"x_max":659,"o":"m 181 364 q 184 311 181 337 q 225 158 194 230 q 304 47 257 85 q 389 12 347 12 q 398 13 393 12 q 482 59 444 16 q 535 178 520 102 q 546 278 546 227 q 543 335 546 306 q 501 490 533 416 q 421 600 469 563 q 336 633 378 633 l 329 633 q 246 588 284 630 q 192 469 208 545 q 181 364 181 413 m 659 323 q 620 151 659 233 q 511 23 581 68 q 363 -22 440 -22 q 216 23 287 -22 q 107 151 146 68 q 68 323 68 233 q 108 496 68 414 q 219 624 148 579 q 363 669 290 669 q 509 624 438 669 q 534 607 529 612 q 383 843 484 747 q 160 947 283 938 l 160 995 q 516 800 373 995 q 659 323 659 605 z "},"∆":{"ha":872,"x_min":68,"x_max":804,"o":"m 419 798 l 150 89 l 680 89 l 419 798 m 441 985 l 804 -5 l 68 -5 l 441 985 z "},"∏":{"ha":1106,"x_min":68,"x_max":1038,"o":"m 386 933 q 321 779 321 933 l 321 -90 q 386 -243 321 -243 l 456 -243 l 456 -289 l 68 -289 l 68 -243 l 137 -243 q 203 -90 203 -243 l 203 779 q 137 933 203 933 l 68 933 l 68 978 l 1038 978 l 1038 933 l 968 933 q 903 779 903 933 l 903 -90 q 968 -243 903 -243 l 1038 -243 l 1038 -288 l 650 -288 l 650 -243 l 720 -243 q 785 -90 785 -243 l 785 779 q 720 933 785 933 l 386 933 z "},"∑":{"ha":841,"x_min":68,"x_max":773,"o":"m 715 372 l 185 -243 l 605 -243 q 730 -119 690 -243 l 773 -119 l 699 -288 l 68 -288 l 68 -243 q 141 -208 113 -243 l 587 317 l 140 897 q 68 933 113 933 l 68 978 l 699 978 l 773 810 l 730 810 q 605 933 690 933 l 286 933 l 715 372 z "},"−":{"ha":713,"x_min":68,"x_max":646,"o":"m 68 433 l 68 539 l 642 539 l 646 536 l 646 433 l 68 433 z "},"√":{"ha":849,"x_min":68,"x_max":781,"o":"m 185 -10 l 68 246 l 125 274 l 182 152 l 673 1144 l 781 1144 l 781 1093 l 730 1093 l 185 -10 z "},"∞":{"ha":744,"x_min":68,"x_max":676,"o":"m 321 512 q 273 597 311 578 q 218 612 243 612 q 203 610 210 612 q 141 581 170 604 q 98 526 113 558 q 85 467 85 496 l 85 462 q 103 405 87 431 q 149 368 119 378 q 190 360 169 360 q 212 362 201 360 q 271 391 243 369 q 321 512 300 412 m 347 466 q 409 367 355 404 q 490 335 454 335 q 504 336 498 335 q 582 371 545 345 q 638 437 619 397 q 655 508 655 473 l 655 515 q 632 586 654 554 q 572 630 610 617 q 522 639 547 639 q 492 636 507 639 q 408 595 448 630 q 347 466 368 560 m 332 578 q 343 610 334 587 q 409 705 366 671 q 498 739 451 739 q 587 706 545 739 q 653 612 629 673 q 676 486 676 552 q 653 360 676 420 q 587 267 629 300 q 498 233 545 233 q 409 267 451 233 q 343 362 366 301 q 332 395 334 386 q 328 382 332 394 q 276 303 309 331 q 207 275 243 275 q 137 303 170 275 q 85 382 103 332 q 68 486 68 433 q 85 590 68 539 q 137 669 103 640 q 207 698 170 698 q 276 670 243 698 q 328 591 309 642 q 332 578 332 578 z "},"∫":{"ha":684,"x_min":68,"x_max":616,"o":"m 113 -196 q 68 -171 68 -196 l 68 -58 l 100 -58 q 122 -102 101 -89 q 163 -116 143 -116 l 163 -116 q 237 -10 216 -116 q 264 203 259 99 l 312 701 l 317 743 q 410 1038 336 906 q 572 1169 484 1169 q 616 1144 616 1169 l 616 1031 l 584 1031 q 562 1076 583 1062 q 522 1089 541 1089 q 446 986 476 1089 q 414 742 416 883 l 364 222 q 275 -66 351 64 q 113 -196 199 -196 z "},"≈":{"ha":706,"x_min":68,"x_max":638,"o":"m 638 726 l 638 606 q 553 537 593 555 q 473 519 512 519 q 352 552 431 519 q 233 585 272 585 q 161 567 199 585 q 68 484 123 548 l 68 604 q 154 674 113 656 q 233 692 195 692 q 356 658 277 692 q 473 625 436 625 q 545 643 507 625 q 638 726 583 662 m 638 490 l 638 370 q 553 301 593 319 q 473 283 512 283 q 352 316 431 283 q 233 349 272 349 q 161 331 199 349 q 68 248 123 312 l 68 368 q 154 438 113 420 q 233 456 195 456 q 356 422 277 456 q 473 389 436 389 q 545 407 507 389 q 638 490 583 426 z "},"≤":{"ha":713,"x_min":68,"x_max":646,"o":"m 646 725 l 228 485 l 646 248 l 646 123 l 68 454 l 68 517 l 646 850 l 646 725 m 68 -5 l 68 101 l 642 101 l 646 98 l 646 -5 l 68 -5 z "},"≥":{"ha":713,"x_min":68,"x_max":646,"o":"m 68 850 l 646 517 l 646 454 l 68 123 l 68 248 l 486 485 l 68 725 l 68 850 m 68 -4 l 68 102 l 642 102 l 646 98 l 646 -4 l 68 -4 z "},"":{"ha":136,"x_min":0,"x_max":0,"o":""},"":{"ha":136,"x_min":0,"x_max":0,"o":""}}}
